<?xml version="1.0" encoding="UTF-8"?>
<svg version="1.1" xmlns="http://www.w3.org/2000/svg" width="800" height="800">
<path d="M0 0 C264 0 528 0 800 0 C800 264 800 528 800 800 C536 800 272 800 0 800 C0 536 0 272 0 0 Z " fill="#FEFEFE" transform="translate(0,0)"/>
<path d="M0 0 C0.79019531 0.24492187 1.58039063 0.48984375 2.39453125 0.7421875 C9.26931711 3.12882591 13.91681535 6.86505176 19 12 C20.2684375 13.2065625 20.2684375 13.2065625 21.5625 14.4375 C23.73969669 18.31858974 23.83291628 21.66159259 23 26 C20.63555605 31.62435817 16.91701252 35.50345777 12 39 C11.34 39 10.68 39 10 39 C10.99 40.98 11.98 42.96 13 45 C13.61875 44.67 14.2375 44.34 14.875 44 C21.90786928 41.74948183 28.92450536 42.4327841 35.60888672 45.53076172 C43.02658524 50.08862467 47.11289509 61.36613752 51.1875 68.75 C52.40952134 70.95347723 53.63215499 73.15661502 54.85546875 75.359375 C55.38809326 76.32327148 55.92071777 77.28716797 56.46948242 78.28027344 C57.50450645 80.11950899 58.58185586 81.93545743 59.6965332 83.72753906 C61 86 61 86 61 88 C57.21696463 90.16754211 53.42670727 92.32167153 49.62915039 94.46362305 C48.33801226 95.19434262 47.04892872 95.92870488 45.76196289 96.66674805 C43.91298452 97.72625897 42.05704209 98.77250174 40.19921875 99.81640625 C39.08377686 100.45006104 37.96833496 101.08371582 36.8190918 101.73657227 C34 103 34 103 31 102 C29.43774414 99.63916016 29.43774414 99.63916016 27.78515625 96.5390625 C27.18123047 95.42789063 26.57730469 94.31671875 25.95507812 93.171875 C25.32315661 91.99015069 24.69230737 90.80785241 24.0625 89.625 C22.83260593 87.32102399 21.59464114 85.02133342 20.34765625 82.7265625 C19.52793335 81.18863037 19.52793335 81.18863037 18.69165039 79.61962891 C16.98502778 76.97681456 15.70257293 75.57260668 13 74 C3.97620784 72.47331613 -2.45937326 77.04719242 -9.9375 81.5 C-11.77958772 82.57481166 -13.62469315 83.64413067 -15.47206116 84.70983887 C-17.13276449 85.67123364 -18.78524775 86.64678631 -20.43725586 87.62304688 C-23 89 -23 89 -25 89 C-19.33746286 101.02319529 -12.59101517 112.47085207 -6 124 C-10.02994614 128.52181667 -15.7480588 130.90366823 -21 133.75 C-22.10601562 134.36488281 -23.21203125 134.97976563 -24.3515625 135.61328125 C-25.41117187 136.18949219 -26.47078125 136.76570312 -27.5625 137.359375 C-28.53316406 137.89014648 -29.50382812 138.42091797 -30.50390625 138.96777344 C-33 140 -33 140 -36 139 C-37.51123047 136.77294922 -37.51123047 136.77294922 -39.1171875 133.8046875 C-39.71716553 132.70850098 -40.31714355 131.61231445 -40.93530273 130.48291016 C-41.58190327 129.28029214 -42.2284681 128.07765492 -42.875 126.875 C-43.54978034 125.63661669 -44.22565631 124.39882979 -44.90258789 123.16162109 C-45.93782734 121.26932517 -46.9724179 119.37670989 -48.00361633 117.48220825 C-51.08330986 111.82589347 -54.24987307 106.22114529 -57.4375 100.625 C-62.70600302 91.34348787 -67.87108905 82.00691884 -73.01437378 72.6557312 C-79.58248089 60.71702376 -86.26135156 48.8434198 -93 37 C-90.48727537 34.16103764 -87.69803906 32.57561109 -84.3828125 30.76953125 C-83.23192139 30.13877686 -82.08103027 29.50802246 -80.89526367 28.8581543 C-79.6386 28.17610206 -78.38184311 27.49422154 -77.125 26.8125 C-75.83217384 26.10701084 -74.53961582 25.40103008 -73.24731445 24.69458008 C-71.23190156 23.59287801 -69.2162877 22.49156417 -67.19960022 21.39219666 C-62.42132821 18.785587 -57.66165971 16.14723223 -52.91015625 13.4921875 C-50.96326947 12.40705993 -49.01616966 11.32231548 -47.06903076 10.23764038 C-45.82639893 9.54408921 -44.58471936 8.84882881 -43.34405518 8.15176392 C-29.35449673 0.29678992 -16.05851615 -5.48955169 0 0 Z " fill="#EC4799" transform="translate(263,200)"/>
<path d="M0 0 C1.47339844 -0.05607422 1.47339844 -0.05607422 2.9765625 -0.11328125 C11.750554 0.98598895 19.84945842 6.59661961 27.5 10.75 C28.63800049 11.36544678 29.77600098 11.98089355 30.94848633 12.61499023 C40.24284117 17.65281824 49.46274198 22.81861947 58.64453125 28.05859375 C62.70736597 30.37587242 66.79027527 32.65283319 70.88671875 34.91015625 C71.95124268 35.50046631 73.0157666 36.09077637 74.11254883 36.69897461 C76.16437984 37.83593583 78.22007571 38.96595717 80.2800293 40.08813477 C81.1956665 40.59787842 82.11130371 41.10762207 83.0546875 41.6328125 C83.86663574 42.07898926 84.67858398 42.52516602 85.51513672 42.98486328 C87.375 44.3125 87.375 44.3125 88.375 47.3125 C87.29516602 49.85620117 87.29516602 49.85620117 85.62890625 52.85546875 C85.03916016 53.92861328 84.44941406 55.00175781 83.84179688 56.10742188 C82.89916992 57.78674805 82.89916992 57.78674805 81.9375 59.5 C81.31294922 60.63115234 80.68839844 61.76230469 80.04492188 62.92773438 C78.49721974 65.72777564 76.94029792 68.52226876 75.375 71.3125 C71.09800843 70.00499093 67.36645305 68.35910084 63.46484375 66.1796875 C62.32345947 65.54538818 61.1820752 64.91108887 60.00610352 64.25756836 C59.4043631 63.92014618 58.80262268 63.582724 58.18264771 63.2350769 C56.28516354 62.17218728 54.38331931 61.11750439 52.48022461 60.06469727 C46.37952845 56.68521379 40.29673199 53.27681629 34.24369812 49.81262207 C31.61303317 48.30962376 28.97555119 46.81884187 26.33718872 45.32940674 C25.07703953 44.61338758 23.82036102 43.89122332 22.56735229 43.16278076 C20.81516851 42.14444912 19.05037725 41.14790497 17.28515625 40.15234375 C16.28621338 39.57863037 15.28727051 39.00491699 14.25805664 38.41381836 C10.80798348 37.09590151 8.89227044 37.29875988 5.375 38.3125 C3.55160404 40.55030413 3.37241753 42.32799481 2.8984375 45.171875 C3.05505162 48.58871591 3.05505162 48.58871591 6.25 50.62890625 C7.61192394 51.40113468 8.98840888 52.14799338 10.375 52.875 C11.11886963 53.28919189 11.86273926 53.70338379 12.62915039 54.13012695 C15.1975369 55.55075353 17.78407789 56.93342386 20.375 58.3125 C23.47336623 59.9759237 26.5704619 61.64165051 29.66601562 63.31030273 C31.71339367 64.40976762 33.76528098 65.50089013 35.82226562 66.58227539 C56.28178693 77.45951088 56.28178693 77.45951088 59.375 86.3125 C61.52430136 96.09401436 57.37613828 103.71361062 52.69775391 111.96728516 C51.23657136 114.55793107 49.82775097 117.17402192 48.41796875 119.79296875 C47.38522203 121.67580282 46.3500845 123.55732758 45.3125 125.4375 C44.83071289 126.32622803 44.34892578 127.21495605 43.85253906 128.13061523 C40.63934412 133.81320999 36.88435788 139.92414697 30.30297852 141.95043945 C17.15688151 144.41918225 6.87124377 137.7074487 -4.1875 131.4375 C-5.37289123 130.77116177 -6.55860735 130.10540121 -7.74462891 129.44018555 C-10.17963204 128.07336775 -12.6127597 126.703298 -15.04443359 125.33056641 C-18.4263326 123.42248044 -21.81563739 121.5278858 -25.20703125 119.63671875 C-38.39521525 112.28021021 -51.5302455 104.83399669 -64.625 97.3125 C-62.57685607 91.97796488 -59.9170682 87.07323276 -57.1875 82.0625 C-56.69701172 81.13953125 -56.20652344 80.2165625 -55.70117188 79.265625 C-55.22357422 78.3890625 -54.74597656 77.5125 -54.25390625 76.609375 C-53.82150635 75.80854492 -53.38910645 75.00771484 -52.94360352 74.18261719 C-51.625 72.3125 -51.625 72.3125 -48.625 71.3125 C-46.05078125 72.4296875 -46.05078125 72.4296875 -42.9375 74.1875 C-42.37084122 74.50362747 -41.80418243 74.81975494 -41.22035217 75.14546204 C-39.34982863 76.19181807 -37.48761375 77.25213817 -35.625 78.3125 C-34.3292621 79.04031778 -33.03294934 79.76711301 -31.73608398 80.49291992 C-29.04634394 81.99995148 -26.35966622 83.51223884 -23.67529297 85.02880859 C-17.94568613 88.2635163 -12.19340306 91.45729265 -6.44067383 94.65063477 C-4.72032992 95.60675405 -3.00174834 96.56604209 -1.28320312 97.52539062 C-0.23197266 98.11126953 0.81925781 98.69714844 1.90234375 99.30078125 C2.81749756 99.81165283 3.73265137 100.32252441 4.67553711 100.84887695 C10.07576608 104.09632425 10.07576608 104.09632425 16.0625 105.3125 C19.267756 103.92644335 20.02748272 102.50398829 21.375 99.3125 C21.62636033 96.10333829 21.62636033 96.10333829 21.375 93.3125 C20.33363892 92.92312256 20.33363892 92.92312256 19.27124023 92.52587891 C16.05672289 91.17915791 13.08433929 89.58689273 10.03515625 87.8984375 C9.13004555 87.39843735 9.13004555 87.39843735 8.20664978 86.88833618 C6.92924717 86.18196789 5.65261443 85.47420575 4.37670898 84.76513672 C2.47607757 83.70893792 0.57325226 82.65679447 -1.33007812 81.60546875 C-4.46760483 79.87035574 -7.59855624 78.1237662 -10.72686768 76.37210083 C-12.66072046 75.29255965 -14.59956751 74.22235023 -16.53857422 73.15209961 C-17.79287863 72.45208178 -19.04695625 71.7516574 -20.30078125 71.05078125 C-21.41493408 70.43243408 -22.52908691 69.81408691 -23.67700195 69.17700195 C-29.60288154 65.42909782 -33.29067602 60.87696698 -35.625 54.3125 C-37.28427894 44.87617879 -33.64113996 38.23892402 -29 30.25 C-28.38253906 29.14333984 -27.76507813 28.03667969 -27.12890625 26.89648438 C-25.32551515 23.68265161 -23.48300278 20.49500959 -21.625 17.3125 C-21.07384521 16.35239014 -20.52269043 15.39228027 -19.95483398 14.40307617 C-19.43993408 13.51982666 -18.92503418 12.63657715 -18.39453125 11.7265625 C-17.94698486 10.95650879 -17.49943848 10.18645508 -17.03833008 9.39306641 C-12.67177349 2.96504857 -7.7061707 0.18916956 0 0 Z " fill="#EC4799" transform="translate(529.625,190.6875)"/>
<path d="M0 0 C0.91814987 -0.00073013 1.83629974 -0.00146027 2.78227234 -0.00221252 C5.78572838 0.00124207 8.7875899 0.04000164 11.79077148 0.0793457 C13.88540297 0.08868141 15.98004543 0.09579394 18.07469177 0.1007843 C23.56416433 0.11979432 29.05296613 0.16884351 34.54217529 0.2243042 C40.15294321 0.27562623 45.76382043 0.29832596 51.37475586 0.32348633 C62.3666331 0.37696822 73.35783822 0.46485512 84.34936523 0.56762695 C84.34936523 10.46762695 84.34936523 20.36762695 84.34936523 30.56762695 C82.11292236 30.59268311 79.87647949 30.61773926 77.57226562 30.64355469 C70.20011161 30.72686505 62.82802973 30.81557167 55.45597172 30.90696621 C50.9843453 30.96223573 46.51271239 31.01566202 42.04101562 31.06494141 C37.72918757 31.11252572 33.41744155 31.16486611 29.10571098 31.2205677 C27.45702584 31.24101824 25.80831818 31.25972676 24.15959358 31.27670097 C21.85826563 31.30068554 19.55709414 31.33074772 17.25585938 31.36230469 C15.94347794 31.37784897 14.6310965 31.39339325 13.27894592 31.40940857 C10.45976351 31.2345805 10.45976351 31.2345805 9.34936523 32.56762695 C9.25085353 34.39878578 9.21963894 36.23382629 9.22436523 38.06762695 C9.22178711 39.06793945 9.21920898 40.06825195 9.21655273 41.09887695 C9.07066141 43.51162318 9.07066141 43.51162318 10.34936523 44.56762695 C12.08650064 44.67513352 13.82793825 44.71387897 15.56835938 44.7253418 C17.24128807 44.74073502 17.24128807 44.74073502 18.94801331 44.75643921 C20.77283485 44.7673912 20.77283485 44.7673912 22.63452148 44.77856445 C25.19247044 44.80664729 27.75041305 44.83531184 30.30834961 44.86450195 C34.35478235 44.9068408 38.40117796 44.94358952 42.44775391 44.96899414 C46.3435947 44.99667668 50.2388915 45.04256834 54.13452148 45.09106445 C55.33689957 45.09431732 56.53927765 45.09757019 57.77809143 45.10092163 C67.31243869 45.23979737 74.43496041 46.65322213 81.34936523 53.56762695 C84.85325907 58.9441568 84.80206629 63.7654063 84.78295898 69.9699707 C84.78820084 70.96589737 84.79344269 71.96182404 84.79884338 72.9879303 C84.80524948 75.08829824 84.80394493 77.18870213 84.79541016 79.2890625 C84.78690198 82.49129529 84.81567935 85.6917421 84.84741211 88.89379883 C84.84902442 90.94002225 84.84844602 92.98624882 84.84545898 95.0324707 C84.85669296 95.98371323 84.86792694 96.93495575 84.87950134 97.9150238 C84.80040623 105.51227247 83.06911466 109.78462754 77.66186523 115.31762695 C71.3122693 120.16473992 63.81165359 121.0114449 56.06591797 120.90820312 C55.18678238 120.9086412 54.30764679 120.90907928 53.40187073 120.90953064 C50.52866522 120.90745945 47.65606112 120.88420813 44.78295898 120.8605957 C42.77800312 120.8549938 40.77304312 120.85072651 38.76808167 120.84773254 C33.51553825 120.83633061 28.26324748 120.80690378 23.01080322 120.77362061 C17.64127011 120.74281906 12.27169579 120.72920572 6.90209961 120.71411133 C-3.61560683 120.68202931 -14.13306017 120.6292997 -24.65063477 120.56762695 C-24.65063477 110.66762695 -24.65063477 100.76762695 -24.65063477 90.56762695 C-21.34926514 90.53789795 -21.34926514 90.53789795 -17.98120117 90.50756836 C-10.72076471 90.44075187 -3.46047332 90.36311136 3.79979515 90.28009987 C8.20300503 90.23008942 12.60619035 90.18376002 17.00952148 90.14575195 C21.25658112 90.10895884 25.50343767 90.06261562 29.75032425 90.00956345 C31.37304762 89.9909876 32.99581458 89.97589151 34.61860275 89.96428299 C36.88632896 89.94747471 39.15358682 89.91845401 41.42114258 89.88647461 C43.35973648 89.86648911 43.35973648 89.86648911 45.3374939 89.84609985 C48.46230129 89.88069312 48.46230129 89.88069312 50.34936523 87.56762695 C50.59224012 85.12749747 50.59224012 85.12749747 50.47436523 82.44262695 C50.45631836 81.53254883 50.43827148 80.6224707 50.41967773 79.68481445 C50.39647461 78.98614258 50.37327148 78.2874707 50.34936523 77.56762695 C47.76968328 76.27778598 45.90544732 76.43599517 43.0168457 76.42578125 C41.3440303 76.41522957 41.3440303 76.41522957 39.63742065 76.40446472 C38.42603424 76.40030045 37.21464783 76.39613617 35.96655273 76.3918457 C33.41185707 76.36863963 30.85716955 76.34452198 28.30249023 76.31958008 C24.267009 76.28325963 20.23167779 76.25346884 16.19604492 76.24169922 C12.30667766 76.22618947 8.41818736 76.18594742 4.52905273 76.1418457 C3.32981171 76.14375412 2.13057068 76.14566254 0.89498901 76.14762878 C-7.5671438 76.02458352 -12.86816962 74.76170863 -19.46313477 69.19262695 C-24.56716596 63.06778952 -25.12743244 57.92523246 -25.15454102 50.2355957 C-25.16452621 49.24441238 -25.17451141 48.25322906 -25.18479919 47.23200989 C-25.19994784 45.14006711 -25.207026 43.04805225 -25.20654297 40.95605469 C-25.21309339 37.77521704 -25.26757975 34.59752084 -25.32446289 31.41723633 C-25.3332684 29.37753338 -25.33922031 27.33781571 -25.34204102 25.2980957 C-25.36359756 24.35717575 -25.38515411 23.4162558 -25.40736389 22.44682312 C-25.34645604 16.50174509 -24.07313747 12.61183509 -20.81773376 7.64741516 C-14.62472031 1.70391356 -8.41415542 -0.17866043 0 0 Z " fill="#EC4799" transform="translate(364.650634765625,163.432373046875)"/>
<path d="M0 0 C5.16136663 2.07397381 8.67719681 6.17777603 12.56640625 10.03125 C38.16394722 32.29839986 69.00006707 49.67397139 102.56640625 56.03125 C103.21889847 56.15547836 103.87139069 56.27970673 104.5436554 56.40769958 C116.1200383 58.5600755 127.33154765 59.48465784 139.10083008 59.36743164 C141.631997 59.34372105 144.16210811 59.34692319 146.69335938 59.35351562 C160.58640164 59.33075474 175.07261249 58.97825235 188.44140625 54.84375 C189.16787354 54.62944336 189.89434082 54.41513672 190.64282227 54.19433594 C192.95900937 53.49743445 195.2631934 52.76983505 197.56640625 52.03125 C198.36836426 51.77714355 199.17032227 51.52303711 199.99658203 51.26123047 C219.36274892 45.04224677 236.88232956 36.68010105 253.56640625 25.03125 C254.64535156 24.27972656 255.72429687 23.52820313 256.8359375 22.75390625 C263.6047695 17.84805554 269.7016998 12.37706957 275.75390625 6.6328125 C280.8127642 1.9533689 283.17392298 0.44919607 290.09375 0.68359375 C293.79905161 1.20456033 295.8419027 2.50610037 298.56640625 5.03125 C301.10456306 8.63379515 301.56640625 10.60113912 301.56640625 15.03125 C300.18718809 22.68228126 293.17256962 27.28335919 287.56640625 32.03125 C286.65117188 32.8459375 285.7359375 33.660625 284.79296875 34.5 C265.48748909 51.5536935 242.65680308 64.10222232 218.56640625 73.03125 C216.87734715 73.73585749 215.18970028 74.44386607 213.50390625 75.15625 C199.30899129 80.73282373 184.59914337 82.92715928 169.56640625 85.03125 C168.29764648 85.20994629 167.02888672 85.38864258 165.72167969 85.57275391 C161.58081184 86.08168756 157.49279827 86.19269954 153.32421875 86.19921875 C152.55697479 86.20254715 151.78973083 86.20587555 150.99923706 86.20930481 C149.38068229 86.21433774 147.76211727 86.21671427 146.14355469 86.21655273 C143.73223508 86.21871342 141.32139365 86.23683629 138.91015625 86.25585938 C83.18804895 86.4567342 29.39597388 63.48849347 -10.18359375 24.46875 C-14.12460583 20.49595556 -15.63191876 18.46134297 -15.99609375 12.84375 C-15.94237591 8.31354517 -15.29230077 6.00194412 -12.05859375 2.78125 C-8.02682663 -0.1432008 -4.89351658 -0.89652212 0 0 Z " fill="#EC489A" transform="translate(257.43359375,454.96875)"/>
<path d="M0 0 C3.07651225 1.5529622 5.45271673 3.69846577 8 6 C15.8816731 12.82575518 23.81145633 18.16856888 33 23 C33.73347656 23.39960938 34.46695313 23.79921875 35.22265625 24.2109375 C37.44424199 25.31510536 39.66110384 26.16862246 42 27 C43.20398438 27.44472656 44.40796875 27.88945312 45.6484375 28.34765625 C56.07728943 31.81475533 66.34710654 32.51113183 77.25 32.5625 C77.91846954 32.57108032 78.58693909 32.57966064 79.27566528 32.58850098 C103.395641 32.80597465 127.78156327 22.81016348 145.6171875 6.625 C153.76810948 -0.600194 153.76810948 -0.600194 158.8125 -0.8125 C163.03994332 -0.31337431 165.8503272 1.07530383 169 4 C171.14369015 7.66501864 171.97086093 10.19867551 172.125 14.4375 C167.28826284 29.75383434 146.75260745 39.71191951 133.484375 46.90625 C104.77417208 61.32458979 68.56770976 63.78995979 38 54 C21.75538926 48.47018179 6.99990994 40.22214448 -6 29 C-6.82628906 28.31808594 -7.65257812 27.63617188 -8.50390625 26.93359375 C-13.71953556 22.52165692 -17.41315379 19.0240883 -18.4375 12 C-17.76944772 7.41907005 -15.58402007 4.40950939 -12.15625 1.359375 C-8.2915645 -1.07705716 -4.39526464 -0.80035168 0 0 Z " fill="#EC489A" transform="translate(323,392)"/>
<path d="M0 0 C5.54246715 2.85669012 8.5359865 7.49198676 10.42578125 13.23828125 C10.94554406 15.05021386 11.44915798 16.86684758 11.9375 18.6875 C12.20111328 19.58662109 12.46472656 20.48574219 12.73632812 21.41210938 C15.11565925 29.95916117 16.09329373 37.3628871 11.625 45.375 C4.91365418 53.39132972 -3.28902942 55.43822492 -13.12841797 57.72241211 C-15.13754619 58.19042254 -17.14091286 58.67891561 -19.14453125 59.16992188 C-28.98078083 61.50640639 -28.98078083 61.50640639 -32.375 60.375 C-33.17731789 57.8063625 -33.78236769 55.37678429 -34.3125 52.75 C-34.65438334 51.18318528 -34.99816821 49.61678439 -35.34375 48.05078125 C-35.51519531 47.2613916 -35.68664062 46.47200195 -35.86328125 45.65869141 C-37.52791635 38.22978078 -39.65233529 30.89855975 -41.73828125 23.578125 C-41.96845947 22.76529053 -42.1986377 21.95245605 -42.43579102 21.11499023 C-42.88585995 19.52978462 -43.34057306 17.94588817 -43.80053711 16.36352539 C-44.79358484 12.86698289 -45.375 10.03953923 -45.375 6.375 C-44.67938965 6.20371582 -43.9837793 6.03243164 -43.26708984 5.85595703 C-40.094101 5.07314902 -36.92204846 4.28660948 -33.75 3.5 C-32.10837891 3.09587891 -32.10837891 3.09587891 -30.43359375 2.68359375 C-29.37011719 2.41933594 -28.30664062 2.15507813 -27.2109375 1.8828125 C-26.23688965 1.64191895 -25.2628418 1.40102539 -24.25927734 1.15283203 C-22.21396496 0.6012521 -20.18782171 -0.02374968 -18.1796875 -0.69824219 C-12.23332974 -2.66310762 -5.73809481 -2.60822491 0 0 Z " fill="#EC499A" transform="translate(486.375,570.625)"/>
<path d="M0 0 C1.98 3.96 3.96 7.92 6 12 C2.68789254 13.8965218 -0.62467373 15.79223453 -3.9375 17.6875 C-4.86369141 18.21794922 -5.78988281 18.74839844 -6.74414062 19.29492188 C-12.47341873 22.57166689 -18.22136231 25.81107786 -24 29 C-23.67 30.98 -23.34 32.96 -23 35 C-13.97647942 30.6483153 -5.1977806 26.11163294 3.30102539 20.79516602 C7.80520409 18 7.80520409 18 10 18 C11.00508801 19.78881736 12.00392736 21.58114696 13 23.375 C13.556875 24.37273438 14.11375 25.37046875 14.6875 26.3984375 C16 29 16 29 16 31 C15.26885986 31.40839111 14.53771973 31.81678223 13.78442383 32.23754883 C11.05376892 33.76329278 8.32350786 35.28973854 5.59350586 36.81665039 C3.83802811 37.79822596 2.08210323 38.77900173 0.32617188 39.75976562 C-0.78564453 40.38173828 -1.89746094 41.00371094 -3.04296875 41.64453125 C-4.06414795 42.21534424 -5.08532715 42.78615723 -6.13745117 43.37426758 C-8.78366035 44.87713384 -11.39800072 46.42208076 -14 48 C-13.34 49.65 -12.68 51.3 -12 53 C-9.62215274 51.83886939 -7.24740887 50.67216651 -4.875 49.5 C-4.15666992 49.14631348 -3.43833984 48.79262695 -2.69824219 48.42822266 C0.9575394 46.60515267 4.53803635 44.72404573 8.0390625 42.6171875 C8.66538574 42.24142578 9.29170898 41.86566406 9.93701172 41.47851562 C11.66959739 40.42393884 13.38983277 39.34915113 15.109375 38.2734375 C18 37 18 37 20.00878906 37.60009766 C22.60666568 39.42651066 23.42649238 41.25740015 24.75 44.125 C25.17796875 45.03507813 25.6059375 45.94515625 26.046875 46.8828125 C26.51867187 47.93082031 26.51867187 47.93082031 27 49 C26.41323486 49.3309668 25.82646973 49.66193359 25.22192383 50.00292969 C22.41844984 51.58469756 19.61547828 53.16735389 16.8125 54.75 C15.78487549 55.32967529 14.75725098 55.90935059 13.69848633 56.5065918 C8.40852167 59.49421358 3.12769397 62.49592292 -2.1328125 65.53515625 C-3.08905518 66.08655273 -4.04529785 66.63794922 -5.03051758 67.20605469 C-6.86316409 68.26430954 -8.69378836 69.32607538 -10.5222168 70.39160156 C-11.75838745 71.10461426 -11.75838745 71.10461426 -13.01953125 71.83203125 C-13.74245361 72.25202393 -14.46537598 72.6720166 -15.21020508 73.10473633 C-17 74 -17 74 -19 74 C-19.35602295 73.36312256 -19.7120459 72.72624512 -20.07885742 72.07006836 C-21.78119344 69.02557392 -23.48436506 65.98154758 -25.1875 62.9375 C-25.81156738 61.82109131 -26.43563477 60.70468262 -27.07861328 59.55444336 C-30.30599454 53.78697096 -33.54709171 48.02849089 -36.82421875 42.2890625 C-37.42145752 41.24113525 -38.01869629 40.19320801 -38.6340332 39.11352539 C-39.78135123 37.10286301 -40.9321502 35.09418233 -42.08666992 33.08764648 C-42.60205322 32.18344971 -43.11743652 31.27925293 -43.6484375 30.34765625 C-44.10395996 29.55367432 -44.55948242 28.75969238 -45.02880859 27.94165039 C-46 26 -46 26 -46 24 C-45.05870239 23.49569458 -45.05870239 23.49569458 -44.09838867 22.98120117 C-41.12636012 21.38650036 -38.15653839 19.78776137 -35.1875 18.1875 C-34.10702393 17.60524658 -33.02654785 17.02299316 -31.91333008 16.4230957 C-24.11062626 12.19665505 -16.40671909 7.82865213 -8.8034668 3.25268555 C-8.07812744 2.8225415 -7.35278809 2.39239746 -6.60546875 1.94921875 C-5.97793701 1.57112061 -5.35040527 1.19302246 -4.70385742 0.8034668 C-3 0 -3 0 0 0 Z " fill="#EC499A" transform="translate(551,534)"/>
<path d="M0 0 C17.16 0 34.32 0 52 0 C52 4.62 52 9.24 52 14 C40.12 14 28.24 14 16 14 C16 16.64 16 19.28 16 22 C27.88 22 39.76 22 52 22 C52 26.62 52 31.24 52 36 C40.12 36 28.24 36 16 36 C16 38.31 16 40.62 16 43 C27.88 43 39.76 43 52 43 C52 47.62 52 52.24 52 57 C34.84 57 17.68 57 0 57 C0 38.19 0 19.38 0 0 Z " fill="#EC489A" transform="translate(374,579)"/>
<path d="M0 0 C14.32443196 2.35131065 28.31824924 5.99222542 42.26953125 9.94921875 C44.84253861 10.67397161 47.40580331 11.36229433 50 12 C49.69147815 13.958964 49.3780582 15.91715713 49.0625 17.875 C48.88847656 18.96554687 48.71445312 20.05609375 48.53515625 21.1796875 C48 24 48 24 47 26 C41.48748971 25.17723727 36.10526511 23.91330083 30.6875 22.625 C29.33881836 22.31175781 29.33881836 22.31175781 27.96289062 21.9921875 C22.19167521 20.62345384 16.59131744 18.97945491 11 17 C11 19.31 11 21.62 11 24 C12.27846802 24.30236572 12.27846802 24.30236572 13.58276367 24.61083984 C16.76107678 25.36445825 19.93853224 26.12150833 23.11547852 26.88085938 C24.48754877 27.20807396 25.85994156 27.53393927 27.23266602 27.85839844 C29.2119759 28.32648333 31.19005402 28.79949642 33.16796875 29.2734375 C34.95110474 29.69761963 34.95110474 29.69761963 36.77026367 30.13037109 C39.63455842 30.90160232 42.27891426 31.82901339 45 33 C44.52511102 34.98019743 44.04497141 36.95913635 43.5625 38.9375 C43.29566406 40.03964844 43.02882813 41.14179687 42.75390625 42.27734375 C42 45 42 45 41 46 C34.53515889 45.54095803 28.59726256 44.25628379 22.375 42.5 C16.91771764 40.9744019 11.63340773 39.66453067 6 39 C5.67 40.98 5.34 42.96 5 45 C5.81984375 45.12632812 6.6396875 45.25265625 7.484375 45.3828125 C14.39325084 46.59570404 21.19015873 48.32849351 28 50 C29.08796875 50.26039063 30.1759375 50.52078125 31.296875 50.7890625 C32.18890625 51.02367187 33.0809375 51.25828125 34 51.5 C34.763125 51.6959375 35.52625 51.891875 36.3125 52.09375 C38 53 38 53 38.796875 54.80078125 C39.02634882 57.28527667 38.7815874 59.25105776 38.25 61.6875 C38.09015625 62.47511719 37.9303125 63.26273438 37.765625 64.07421875 C37.51296875 64.70972656 37.2603125 65.34523438 37 66 C33.30651848 67.23116051 31.64834753 66.63658758 27.890625 65.70703125 C26.05552368 65.2586792 26.05552368 65.2586792 24.18334961 64.80126953 C22.87216282 64.47195927 21.56104743 64.14236461 20.25 63.8125 C18.92404775 63.48495417 17.597957 63.15796854 16.27172852 62.83154297 C7.48521589 60.66027675 -1.27101004 58.39115189 -10 56 C-11.33275692 55.66436941 -12.66599053 55.33061702 -14 55 C-12.7260098 46.43181042 -10.90266814 38.12128194 -8.6875 29.75 C-8.38062256 28.57719482 -8.07374512 27.40438965 -7.75756836 26.19604492 C-5.42508507 17.37708297 -2.87679778 8.65690762 0 0 Z " fill="#EC499B" transform="translate(309,565)"/>
<path d="M0 0 C1.94118149 1.45847206 3.72333396 2.94676349 5.44921875 4.65234375 C4.94124866 8.97008955 4.25239096 12.68536489 2.44921875 16.65234375 C3.02164307 16.32435791 3.59406738 15.99637207 4.18383789 15.65844727 C8.06507709 13.93470691 11.45916866 14.36340231 15.44921875 15.65234375 C18.54031501 17.82085143 20.98473035 20.42319594 23.51171875 23.21484375 C24.18654297 23.92576172 24.86136719 24.63667969 25.55664062 25.36914062 C27.20724226 27.11339342 28.83620276 28.87339931 30.44921875 30.65234375 C29.52434219 31.77221984 28.59346564 32.88714211 27.66015625 34 C27.14243652 34.62140869 26.6247168 35.24281738 26.09130859 35.88305664 C23.79375381 38.3585814 21.34286822 39.92993335 18.44921875 41.65234375 C17.80855469 40.91886719 17.16789063 40.18539062 16.5078125 39.4296875 C15.64285156 38.49253906 14.77789063 37.55539062 13.88671875 36.58984375 C13.03980469 35.65011719 12.19289063 34.71039062 11.3203125 33.7421875 C8.56486514 31.32157321 8.56486514 31.32157321 4.91796875 31.55859375 C0.97270303 32.80259646 -0.71559172 34.18621365 -3.48828125 37.21484375 C-4.26042969 38.04113281 -5.03257812 38.86742187 -5.828125 39.71875 C-6.39660156 40.35683594 -6.96507812 40.99492188 -7.55078125 41.65234375 C-5.62376696 46.33679837 -2.03250991 49.09040046 1.6484375 52.43359375 C3.44921875 54.65234375 3.44921875 54.65234375 3.50390625 56.66796875 C2.07012639 59.365599 0.21453435 60.93517564 -2.11328125 62.90234375 C-2.93957031 63.60875 -3.76585937 64.31515625 -4.6171875 65.04296875 C-5.57431641 65.83960938 -5.57431641 65.83960938 -6.55078125 66.65234375 C-9.77290605 65.26542916 -11.58432526 63.72797702 -13.80078125 61.02734375 C-17.49790426 56.66016646 -21.4680235 52.65688775 -25.55078125 48.65234375 C-30.79604325 43.5075657 -35.78267688 38.24339577 -40.55078125 32.65234375 C-41.13142334 31.976875 -41.71206543 31.30140625 -42.31030273 30.60546875 C-43.72665043 28.95687547 -45.13915389 27.30498066 -46.55078125 25.65234375 C-41.69934521 20.69983612 -36.79943094 15.90826283 -31.51953125 11.4140625 C-29.38987453 9.50835778 -27.45310781 7.47674718 -25.48828125 5.40234375 C-18.88891799 -1.18425478 -8.80131827 -4.65000736 0 0 Z " fill="#EC499A" transform="translate(608.55078125,498.34765625)"/>
<path d="M0 0 C5.72514445 1.13999211 10.66439751 4.38096988 15.75 7.125 C16.80960937 7.681875 17.86921875 8.23875 18.9609375 8.8125 C34.59058939 17.2284664 34.59058939 17.2284664 38 24.875 C39.64576337 30.37868921 40.04168336 35.7272363 37.625 41 C36 43 36 43 34 44 C30.04437178 44.25797575 27.40340307 44.09440189 24 42 C25.09686918 44.27811291 26.19069512 46.26132294 27.6875 48.3125 C29.50651654 52.03715291 28.9067277 53.9646533 28 58 C26.67727377 60.93565478 25.08770824 63.67535972 23.4375 66.4375 C23.01275391 67.16904297 22.58800781 67.90058594 22.15039062 68.65429688 C21.11040486 70.44213758 20.05659823 72.22192662 19 74 C15.19529921 72.8335158 11.95426001 71.55623932 8.625 69.375 C7.93664062 68.92898438 7.24828125 68.48296875 6.5390625 68.0234375 C6.03117187 67.68570313 5.52328125 67.34796875 5 67 C5.6496875 65.80503906 5.6496875 65.80503906 6.3125 64.5859375 C6.869375 63.52632812 7.42625 62.46671875 8 61.375 C8.556875 60.33085938 9.11375 59.28671875 9.6875 58.2109375 C11.37836974 54.65248365 11.37836974 54.65248365 11 49 C6.38 46.36 1.76 43.72 -3 41 C-5.7817641 44.47720512 -8.03254377 47.53274507 -10.25 51.3125 C-10.77078125 52.19550781 -11.2915625 53.07851563 -11.828125 53.98828125 C-12.21484375 54.65214844 -12.6015625 55.31601562 -13 56 C-18.31027254 54.53967505 -22.46330032 52.01679014 -27 49 C-22.06848138 38.55296713 -16.27267765 28.62638936 -10.50732422 18.62548828 C-8.23056847 14.65978836 -5.98743734 10.67548065 -3.75 6.6875 C-3.36739014 6.0059082 -2.98478027 5.32431641 -2.59057617 4.62207031 C-1.72641321 3.08173773 -0.86309566 1.54093088 0 0 Z " fill="#EC499A" transform="translate(249,534)"/>
<path d="M0 0 C7.08138153 4.03023965 12.44940095 10.10082687 14.6875 18 C15.75865003 27.68051838 13.87123175 33.36084803 8.5 41.1875 C2.80958461 46.87791539 -2.11456445 49.30665687 -10.25 49.625 C-19.1061539 49.26235577 -25.26350608 46.53380561 -31.3125 40.0625 C-36.52802642 33.95682364 -36.81796339 27.21857839 -36.6875 19.48046875 C-35.95767941 12.70682144 -32.85806447 8.17902129 -27.9375 3.625 C-19.58054356 -2.8171934 -9.75400485 -4.40119731 0 0 Z " fill="#EC479A" transform="translate(411.3125,317)"/>
<path d="M0 0 C3.75310882 1.55765927 6.09417913 3.8779944 8.921875 6.76171875 C9.38555481 7.23060013 9.84923462 7.69948151 10.32696533 8.18257141 C11.80617025 9.67951598 13.27852701 11.18295749 14.75 12.6875 C23.30415666 21.42027329 23.30415666 21.42027329 32.40136719 29.57958984 C34.56420475 31.50130471 36.30201022 33.66526405 38 36 C35.03 38.97 32.06 41.94 29 45 C25.67446059 43.3372303 23.91775851 42.19828503 21.3203125 39.734375 C20.29744141 38.76951172 20.29744141 38.76951172 19.25390625 37.78515625 C18.55136719 37.11355469 17.84882813 36.44195313 17.125 35.75 C16.43019531 35.09386719 15.73539063 34.43773437 15.01953125 33.76171875 C10.94741214 29.90432532 6.9475267 25.98465077 3 22 C-0.68069887 23.53643852 -2.98775204 25.78150945 -5.75 28.625 C-6.94882813 29.85089844 -6.94882813 29.85089844 -8.171875 31.1015625 C-8.77515625 31.72804688 -9.3784375 32.35453125 -10 33 C-6.83490989 40.20937191 0.18137076 45.22703447 6.03515625 50.2578125 C9.16363209 53.03176921 12.08580113 56.00383929 15 59 C14.06409496 60.1055189 13.12620142 61.20935453 12.1875 62.3125 C11.66542969 62.92738281 11.14335937 63.54226563 10.60546875 64.17578125 C9.12827531 65.85424679 7.59960869 67.43882034 6 69 C2.28731906 67.45872649 0.01884302 65.19156766 -2.75 62.3125 C-6.46848943 58.5117431 -10.2676265 54.92949189 -14.3046875 51.47265625 C-16.30002862 49.73937606 -18.16992634 47.90632672 -20 46 C-23.06775511 47.42431487 -25.21040099 48.90780074 -28 51 C-31.63 47.7 -35.26 44.4 -39 41 C-35.04247722 36.23067767 -30.88878474 31.8202386 -26.44140625 27.50390625 C-24.4646374 25.47653211 -22.61797625 23.42156364 -20.7734375 21.27734375 C-16.74669609 16.63577472 -12.43000972 12.31885708 -8.0625 8 C-6.89364258 6.83791016 -6.89364258 6.83791016 -5.70117188 5.65234375 C-3.8030758 3.76589243 -1.90266851 1.88183755 0 0 Z " fill="#EC489A" transform="translate(200,489)"/>
<path d="M0 0 C1.75 1.1875 1.75 1.1875 3.75 4.1875 C4.12109375 6.2734375 4.12109375 6.2734375 4.1875 8.5625 C4.24744141 9.68785156 4.24744141 9.68785156 4.30859375 10.8359375 C3.25050621 15.29026407 -0.55083538 17.73408474 -4.24853516 20.13208008 C-5.33440918 20.73431396 -6.4202832 21.33654785 -7.5390625 21.95703125 C-8.12416595 22.28289719 -8.70926941 22.60876312 -9.31210327 22.94450378 C-10.53847987 23.62490874 -11.76716839 24.30116206 -12.99804688 24.97338867 C-14.88274709 26.00423732 -16.75802794 27.05085587 -18.6328125 28.09960938 C-27.8389297 33.1875 -27.8389297 33.1875 -31.25 33.1875 C-32.61965208 30.94570623 -33.97052808 28.69577662 -35.3125 26.4375 C-35.70244141 25.80328125 -36.09238281 25.1690625 -36.49414062 24.515625 C-39.25890177 19.81797774 -39.25890177 19.81797774 -39.22192383 17.19897461 C-37.71143382 14.07289394 -35.36581286 13.18779697 -32.3515625 11.55078125 C-31.76079926 11.22587204 -31.17003601 10.90096283 -30.56137085 10.56620789 C-28.67242423 9.53164084 -26.77395322 8.51606016 -24.875 7.5 C-23.60353397 6.80519302 -22.33269238 6.10924202 -21.0625 5.41210938 C-6.70302393 -2.42053642 -6.70302393 -2.42053642 0 0 Z " fill="#FEFBFC" transform="translate(253.25,229.8125)"/>
<path d="M0 0 C3.2496536 1.96948703 3.79629497 5.06579006 4.68554688 8.609375 C4.85119141 9.31578125 5.01683594 10.0221875 5.1875 10.75 C5.45336914 11.78640625 5.45336914 11.78640625 5.72460938 12.84375 C6.81922733 17.34055888 7.17554685 21.3752484 7 26 C5.71839144 26.66556966 4.42377707 27.30608762 3.125 27.9375 C2.40570313 28.29714844 1.68640625 28.65679688 0.9453125 29.02734375 C-3.29520865 30.42772806 -7.56308416 30.67675595 -12 31 C-13.00801676 27.2521079 -14.00501289 23.50137033 -15 19.75 C-15.28617187 18.68652344 -15.57234375 17.62304688 -15.8671875 16.52734375 C-16.13789063 15.50253906 -16.40859375 14.47773437 -16.6875 13.421875 C-16.93886719 12.47924805 -17.19023437 11.53662109 -17.44921875 10.56542969 C-18 8 -18 8 -18 4 C-15.94037148 3.32451422 -13.87715678 2.65995688 -11.8125 2 C-10.66394531 1.62875 -9.51539063 1.2575 -8.33203125 0.875 C-5.30015193 0.07882067 -3.09359122 -0.4274392 0 0 Z " fill="#FEFBFC" transform="translate(478,583)"/>
<path d="M0 0 C4.08865634 1.07596219 7.63887916 2.76222955 11.3125 4.8125 C12.17488281 5.29332031 13.03726562 5.77414062 13.92578125 6.26953125 C16 8 16 8 16.859375 10.58203125 C17 13 17 13 15.9375 14.875 C13.02164242 16.56807859 11.23128003 15.78182342 8 15 C4.7890625 13.37109375 4.7890625 13.37109375 1.625 11.4375 C0.56539063 10.79683594 -0.49421875 10.15617188 -1.5859375 9.49609375 C-2.38257813 9.00238281 -3.17921875 8.50867188 -4 8 C-2.68 5.36 -1.36 2.72 0 0 Z " fill="#FEF7FB" transform="translate(256,554)"/>
<path d="M0 0 C1 1 1 1 1.390625 3.69140625 C0.87611067 8.04934265 -1.1942049 10.04887944 -4.25 12.9375 C-4.74113281 13.44345703 -5.23226562 13.94941406 -5.73828125 14.47070312 C-7.203125 15.90234375 -7.203125 15.90234375 -10 18 C-12.25 17.9453125 -12.25 17.9453125 -14 17 C-15.75 14.9375 -15.75 14.9375 -17 13 C-15.4774746 9.46903684 -13.40619258 7.0146086 -10.75 4.25 C-9.62851562 3.05117188 -9.62851562 3.05117188 -8.484375 1.828125 C-5.42263674 -0.42485221 -3.71986126 -0.44133947 0 0 Z " fill="#FEFBFC" transform="translate(601,512)"/>
</svg>
